# File created by Blade
# Date/Time:  Tue Sep 30 19:09:10 2014
#---------------------------------------------------------
:version 1.10
:name HOM
:units
  mass 1.0
  length 1.000000
  angle deg
:documentation
     Acclaim Skeleton File
:root
   axis xyz
   order TX TY TZ RX RY RZ
   position 0.000000 0.000000 0.000000
   orientation 0 0 0
:bonedata
   begin
      id 1
      name Spine_dum
      direction 0.000000 1.000000 0.000000
      length 7.508948
      axis 0.0 0.0 0.0 xyz
   end
   begin
      id 2
      name LeftUpLeg_dum
      direction 1.000000 0.000000 0.000000
      length 3.000560
      axis 0.0 0.0 0.0 xyz
   end
   begin
      id 3
      name RightUpLeg_dum
      direction -1.000000 0.000000 0.000000
      length 3.000560
      axis 0.0 0.0 0.0 xyz
   end
   begin
      id 4
      name Spine
      direction 0.000000 1.000000 0.000000
      length 0.000000
      axis 0.0 0.0 0.0 xyz
      dof rx ry rz
   end
   begin
      id 5
      name Spine_dum1
      direction 0.000000 1.000000 0.000000
      length 13.861154
      axis 0.0 0.0 0.0 xyz
   end
   begin
      id 6
      name Spine_dum2
      direction 0.000000 1.000000 0.000000
      length 8.204781
      axis 0.0 0.0 0.0 xyz
   end
   begin
      id 7
      name Spine_dum3
      direction 0.000000 1.000000 0.000000
      length 8.204781
      axis 0.0 0.0 0.0 xyz
   end
   begin
      id 8
      name Head
      direction 0.000000 1.000000 0.000000
      length 4.527550
      axis 0.0 0.0 0.0 xyz
      dof rx ry rz
   end
   begin
      id 9
      name LeftShoulder
      direction 1.000000 0.000000 0.000000
      length 6.635956
      axis 0.0 0.0 -90.0 xyz
      dof rx ry rz
   end
   begin
      id 10
      name LeftArm
      direction 1.000000 0.000000 0.000000
      length 10.274218
      axis 0.0 0.0 -90.0 xyz
      dof rx ry rz
   end
   begin
      id 11
      name LeftForeArm
      direction 1.000000 0.000000 0.000000
      length 8.522147
      axis 0.0 0.0 -90.0 xyz
      dof ry rz rx
   end
   begin
      id 12
      name LeftHand
      direction 0.000000 0.000000 0.000000
      length 0.000000
      axis 0.0 0.0 -90.0 xyz
      dof rx ry rz
   end
   begin
      id 13
      name LeftHand_dum1
      direction 0.000000 0.000000 0.000000
      length 0.000000
      axis 0.0 0.0 -90.0 xyz
   end
   begin
      id 14
      name LeftHand_dum2
      direction 1.000000 0.000000 0.000000
      length 3.937000
      axis 0.0 0.0 -90.0 xyz
   end
   begin
      id 15
      name LeftHandThumb1
      direction 0.000000 0.000000 1.000000
      length 3.937000
      axis 0.0 0.0 -90.0 xyz
      dof rx rz ry
   end
   begin
      id 16
      name RightShoulder
      direction -1.000000 0.000000 0.000000
      length 6.635956
      axis 0.0 0.0 90.0 xyz
      dof rx ry rz
   end
   begin
      id 17
      name RightArm
      direction -1.000000 0.000000 0.000000
      length 10.274218
      axis 0.0 0.0 90.0 xyz
      dof rx ry rz
   end
   begin
      id 18
      name RightForeArm
      direction -1.000000 0.000000 0.000000
      length 8.522147
      axis 0.0 0.0 90.0 xyz
      dof ry rz rx
   end
   begin
      id 19
      name RightHand
      direction 0.000000 0.000000 0.000000
      length 0.000000
      axis 0.0 0.0 90.0 xyz
      dof rx ry rz
   end
   begin
      id 20
      name RightHand_dum1
      direction 0.000000 0.000000 0.000000
      length 0.000000
      axis 0.0 0.0 90.0 xyz
   end
   begin
      id 21
      name RightHand_dum2
      direction -1.000000 0.000000 0.000000
      length 3.937000
      axis 0.0 0.0 90.0 xyz
   end
   begin
      id 22
      name RightHandThumb1
      direction 0.000000 0.000000 1.000000
      length 3.937000
      axis 0.0 0.0 90.0 xyz
      dof rx rz ry
   end
   begin
      id 23
      name LeftUpLeg
      direction 0.000000 -1.000000 0.000000
      length 16.490845
      axis 0.0 0.0 0.0 xyz
      dof rx ry rz
   end
   begin
      id 24
      name LeftLeg
      direction 0.000000 -1.000000 0.000000
      length 14.556576
      axis 0.0 0.0 0.0 xyz
      dof rx ry rz
   end
   begin
      id 25
      name LeftFoot
      direction 0.000000 -0.258819 0.965926
      length 4.831116
      axis 15.0 0.0 0.0 xyz
      dof rx ry rz
   end
   begin
      id 26
      name LeftToeBase
      direction 0.000000 0.000000 1.000000
      length 2.952750
      axis 0.0 0.0 0.0 xyz
      dof rx ry rz
   end
   begin
      id 27
      name RightUpLeg
      direction 0.000000 -1.000000 0.000000
      length 16.490845
      axis 0.0 0.0 0.0 xyz
      dof rx ry rz
   end
   begin
      id 28
      name RightLeg
      direction 0.000000 -1.000000 0.000000
      length 14.556576
      axis 0.0 0.0 0.0 xyz
      dof rx ry rz
   end
   begin
      id 29
      name RightFoot
      direction 0.000000 -0.258819 0.965926
      length 4.831116
      axis 15.0 0.0 0.0 xyz
      dof rx ry rz
   end
   begin
      id 30
      name RightToeBase
      direction 0.000000 0.000000 1.000000
      length 2.952750
      axis 0.0 0.0 0.0 xyz
      dof rx ry rz
   end
:hierarchy
   begin
      root Spine_dum LeftUpLeg_dum RightUpLeg_dum
      Spine_dum Spine
      LeftUpLeg_dum LeftUpLeg
      RightUpLeg_dum RightUpLeg
      Spine Spine_dum1 Spine_dum2 Spine_dum3
      Spine_dum1 Head
      Spine_dum2 LeftShoulder
      Spine_dum3 RightShoulder
      LeftShoulder LeftArm
      LeftArm LeftForeArm
      LeftForeArm LeftHand
      LeftHand LeftHand_dum1 LeftHand_dum2
      LeftHand_dum1 LeftHandThumb1
      RightShoulder RightArm
      RightArm RightForeArm
      RightForeArm RightHand
      RightHand RightHand_dum1 RightHand_dum2
      RightHand_dum1 RightHandThumb1
      LeftUpLeg LeftLeg
      LeftLeg LeftFoot
      LeftFoot LeftToeBase
      RightUpLeg RightLeg
      RightLeg RightFoot
      RightFoot RightToeBase
   end

# File created by Blade
# Date/Time:  Wed Sep 24 19:42:34 2014
# Frame Rate: 120.000 fps
#------------------------------------------------------
:FULLY-SPECIFIED
:DEGREES
341
root -4.889012 33.040166 -2.879638 7.246121 4.923257 -2.185503
Spine -13.455544 11.547607 -1.583738
Head 15.119129 -19.340219 22.228546
LeftShoulder -12.029411 20.603725 12.004741
LeftArm 18.938657 34.674516 -73.138338
LeftForeArm 0.982213 0.000000 25.878047
LeftHand -23.537951 -0.000000 -8.251095
LeftHandThumb1 -26.253704 0.000000 33.147579
RightShoulder -111.433140 53.041503 -179.372585
RightArm -19.283173 17.181058 46.352083
RightForeArm 60.810193 -0.000000 158.203596
RightHand 8.651703 0.000000 4.461006
RightHandThumb1 -24.326973 -0.000000 -32.862282
LeftUpLeg -1.202137 3.172435 6.749912
LeftLeg -2.159594 -0.000000 0.000000
LeftFoot -7.771374 4.140220 -19.086438
LeftToeBase 10.130939 -0.000000 -0.000000
RightUpLeg -2.200576 -10.362536 0.877470
RightLeg 1.152729 -0.000000 -0.000000
RightFoot -6.087939 -4.296047 -14.755543
RightToeBase 0.121724 -0.000000 -0.000000
342
root -4.885328 33.039358 -2.877928 7.251012 4.954332 -2.179347
Spine -13.462721 11.577491 -1.590554
Head 15.064263 -19.622977 22.247333
LeftShoulder -12.040230 20.569288 11.947875
LeftArm 18.953551 34.734123 -73.105125
LeftForeArm 0.940248 -0.000000 25.870789
LeftHand -23.504095 -0.000000 -8.258288
LeftHandThumb1 -26.253704 0.000000 33.147579
RightShoulder -111.513550 52.974185 -179.427160
RightArm -19.302754 17.238344 46.384896
RightForeArm 60.876327 -0.000000 158.182328
RightHand 8.652735 -0.000000 4.460283
RightHandThumb1 -24.326973 -0.000000 -32.862282
LeftUpLeg -1.208523 3.151403 6.741650
LeftLeg -2.162272 -0.000000 0.000000
LeftFoot -7.780874 4.125714 -19.127800
LeftToeBase 10.168758 -0.000000 -0.000000
RightUpLeg -2.185643 -10.341431 0.866476
RightLeg 1.128442 -0.000000 -0.000000
RightFoot -6.081997 -4.340930 -14.735651
RightToeBase 0.131257 -0.000000 -0.000000
343
root -4.881263 33.038358 -2.876035 7.252253 4.981559 -2.173588
Spine -13.468270 11.617862 -1.596558
Head 15.021088 -19.916986 22.263130
LeftShoulder -12.020169 20.553294 11.889496
LeftArm 18.970842 34.759512 -73.075238
LeftForeArm 0.930121 0.000000 25.873103
LeftHand -23.512720 -0.000000 -8.327140
LeftHandThumb1 -26.253704 0.000000 33.147579
RightShoulder -111.611920 52.886621 -179.525629
RightArm -19.390296 17.300239 46.400966
RightForeArm 60.892486 -0.000000 158.193554
RightHand 8.736285 -0.000000 4.375213
RightHandThumb1 -24.326973 -0.000000 -32.862282
LeftUpLeg -1.206785 3.130251 6.730235
LeftLeg -2.171064 -0.000000 0.000000
LeftFoot -7.782542 4.137796 -19.070206
LeftToeBase 10.146696 -0.000000 -0.000000
RightUpLeg -2.179215 -10.346450 0.855883
RightLeg 1.126862 -0.000000 -0.000000
RightFoot -6.081890 -4.370067 -14.723338
RightToeBase 0.106025 -0.000000 -0.000000
344
root -4.877631 33.037826 -2.874179 7.255359 5.003304 -2.171612
Spine -13.482399 11.664514 -1.591247
Head 15.015098 -20.163689 22.242720
LeftShoulder -11.990258 20.568564 11.812052
LeftArm 19.021113 34.784471 -73.003923
LeftForeArm 0.865905 0.000000 25.872203
LeftHand -23.517456 -0.000000 -8.283049
LeftHandThumb1 -26.253704 0.000000 33.147579
RightShoulder -111.826321 52.777296 -179.763716
RightArm -19.536139 17.330202 46.392630
RightForeArm 60.973315 -0.000000 158.188423
RightHand 8.709685 -0.000000 4.417513
RightHandThumb1 -24.326973 -0.000000 -32.862282
LeftUpLeg -1.210945 3.136847 6.723231
LeftLeg -2.172089 -0.000000 0.000000
LeftFoot -7.782600 4.107705 -19.070403
LeftToeBase 10.176005 -0.000000 -0.000000
RightUpLeg -2.176469 -10.353007 0.849516
RightLeg 1.126547 -0.000000 -0.000000
RightFoot -6.085002 -4.383822 -14.723976
RightToeBase 0.110066 -0.000000 -0.000000
345
root -4.873553 33.036850 -2.872220 7.252441 5.038503 -2.166783
Spine -13.488931 11.691405 -1.587117
Head 15.026485 -20.420534 22.215812
LeftShoulder -11.939718 20.552835 11.751040
LeftArm 19.010453 34.805079 -72.973408
LeftForeArm 0.815701 -0.000000 25.890968
LeftHand -23.586275 -0.000000 -8.170850
LeftHandThumb1 -26.253704 0.000000 33.147579
RightShoulder -111.921005 52.735222 -179.820101
RightArm -19.581027 17.478037 46.343579
RightForeArm 61.124752 -0.000000 158.174461
RightHand 8.673583 -0.000000 4.470250
RightHandThumb1 -24.326973 -0.000000 -32.862282
LeftUpLeg -1.207842 3.102263 6.717548
LeftLeg -2.178019 -0.000000 0.000000
LeftFoot -7.769610 4.098788 -19.067851
LeftToeBase 10.116212 -0.000000 -0.000000
RightUpLeg -2.165023 -10.370931 0.840723
RightLeg 1.126554 -0.000000 -0.000000
RightFoot -6.091302 -4.400457 -14.732287
RightToeBase 0.137121 -0.000000 -0.000000
346
root -4.869955 33.035972 -2.870853 7.253957 5.058683 -2.161505
Spine -13.502649 11.724810 -1.588548
Head 15.059930 -20.685868 22.159314
LeftShoulder -11.890868 20.539264 11.693659
LeftArm 19.006770 34.820575 -72.944992
LeftForeArm 0.768877 0.000000 25.889306
LeftHand -23.467610 -0.000000 -8.269798
LeftHandThumb1 -26.253704 0.000000 33.147579
RightShoulder -111.979127 52.697628 -179.848191
RightArm -19.637140 17.624727 46.324468
RightForeArm 61.231404 -0.000000 158.172464
RightHand 8.678405 -0.000000 4.498233
RightHandThumb1 -24.326973 -0.000000 -32.862282
LeftUpLeg -1.211291 3.103821 6.707151
LeftLeg -2.173952 -0.000000 0.000000
LeftFoot -7.782372 4.081987 -19.031708
LeftToeBase 10.110260 -0.000000 -0.000000
RightUpLeg -2.161012 -10.355416 0.829919
RightLeg 1.128200 -0.000000 -0.000000
RightFoot -6.097837 -4.450324 -14.739787
RightToeBase 0.134477 -0.000000 -0.000000
347
root -4.866562 33.035092 -2.868942 7.253214 5.091227 -2.162217
Spine -13.518383 11.741649 -1.580435
Head 15.107491 -20.934497 22.106637
LeftShoulder -11.836101 20.491492 11.654981
LeftArm 18.958586 34.854138 -72.947294
LeftForeArm 0.678228 -0.000000 25.889144
LeftHand -23.545883 -0.000000 -8.118534
LeftHandThumb1 -26.253704 0.000000 33.147579
RightShoulder -112.048978 52.679149 -179.892478
RightArm -19.708870 17.766804 46.278480
RightForeArm 61.358894 0.000000 158.171452
RightHand 8.722622 0.000000 4.551102
RightHandThumb1 -24.326973 -0.000000 -32.862282
LeftUpLeg -1.209094 3.081076 6.705598
LeftLeg -2.184681 -0.000000 0.000000
LeftFoot -7.782674 4.067469 -19.025930
LeftToeBase 10.114131 -0.000000 -0.000000
RightUpLeg -2.155698 -10.370646 0.827865
RightLeg 1.133185 -0.000000 -0.000000
RightFoot -6.091922 -4.478384 -14.723825
RightToeBase 0.091477 -0.000000 -0.000000
348
root -4.862686 33.033694 -2.866544 7.253369 5.110666 -2.159490
Spine -13.539208 11.762478 -1.575075
Head 15.164384 -21.160105 22.042245
LeftShoulder -11.794056 20.485931 11.612799
LeftArm 18.971695 34.898010 -72.915549
LeftForeArm 0.617826 0.000000 25.871428
LeftHand -23.525799 -0.000000 -8.061267
LeftHandThumb1 -26.253704 0.000000 33.147579
RightShoulder -112.103556 52.682933 -179.917549
RightArm -19.779272 17.938249 46.218225
RightForeArm 61.526590 -0.000000 158.166820
RightHand 8.769854 -0.000000 4.623241
RightHandThumb1 -24.326973 -0.000000 -32.862282
LeftUpLeg -1.199750 3.079819 6.697879
LeftLeg -2.203024 -0.000000 0.000000
LeftFoot -7.795450 4.064422 -19.028662
LeftToeBase 10.148506 -0.000000 -0.000000
RightUpLeg -2.143659 -10.367650 0.817112
RightLeg 1.123715 -0.000000 -0.000000
RightFoot -6.108633 -4.488620 -14.731267
RightToeBase 0.153731 -0.000000 -0.000000
349
root -4.859910 33.033095 -2.864597 7.256623 5.138792 -2.157467
Spine -13.561584 11.771356 -1.575812
Head 15.210302 -21.387018 21.993664
LeftShoulder -11.762251 20.432970 11.595197
LeftArm 18.964307 34.971314 -72.906076
LeftForeArm 0.558889 -0.000000 25.817401
LeftHand -23.532881 0.000000 -8.064117
LeftHandThumb1 -26.253704 0.000000 33.147579
RightShoulder -112.164611 52.690414 -179.925413
RightArm -19.825254 18.085794 46.167562
RightForeArm 61.643982 0.000000 158.155424
RightHand 8.836124 0.000000 4.619715
RightHandThumb1 -24.326973 -0.000000 -32.862282
LeftUpLeg -1.200497 3.071142 6.693965
LeftLeg -2.209759 -0.000000 0.000000
LeftFoot -7.785009 4.044992 -18.999417
LeftToeBase 10.150783 -0.000000 -0.000000
RightUpLeg -2.142143 -10.375357 0.816175
RightLeg 1.129336 -0.000000 -0.000000
RightFoot -6.115470 -4.525770 -14.747084
RightToeBase 0.164759 -0.000000 -0.000000
350
root -4.856328 33.032696 -2.863019 7.259149 5.166554 -2.154351
Spine -13.576884 11.796847 -1.581393
Head 15.216120 -21.600695 21.990660
LeftShoulder -11.730539 20.408569 11.570058
LeftArm 19.007485 35.056850 -72.854903
LeftForeArm 0.545001 -0.000000 25.781171
LeftHand -23.446283 -0.000000 -8.162886
LeftHandThumb1 -26.253704 0.000000 33.147579
RightShoulder -112.186320 52.699777 -179.902386
RightArm -19.874815 18.226585 46.096010
RightForeArm 61.744041 -0.000000 158.141527
RightHand 8.865882 -0.000000 4.607423
RightHandThumb1 -24.326973 -0.000000 -32.862282
LeftUpLeg -1.202337 3.069697 6.686379
LeftLeg -2.218901 -0.000000 0.000000
LeftFoot -7.776572 4.033605 -18.984909
LeftToeBase 10.130304 -0.000000 -0.000000
RightUpLeg -2.137031 -10.397583 0.809133
RightLeg 1.125047 -0.000000 -0.000000
RightFoot -6.102807 -4.529625 -14.726246
RightToeBase 0.095288 -0.000000 -0.000000
